<svg xmlns="http://www.w3.org/2000/svg" xmlns:xlink="http://www.w3.org/1999/xlink" xmlns:inkscape="http://www.inkscape.org/namespaces/inkscape" version="1.1" width="1080" height="1350" viewBox="0 0 1080 1350">
<defs>
<clipPath id="clip_1">
<path transform="matrix(1,0,0,-1,0,1350)" d="M0 0H1080V1350H0Z"/>
</clipPath>
<clipPath id="clip_2">
<path transform="matrix(1,0,0,-1,0,1350)" d="M0 1350H1080V0H0Z"/>
</clipPath>
<clipPath id="clip_3">
<path transform="matrix(1,0,0,-1,0,1350)" d="M2210.74 0H1130.74V1350H2210.74Z"/>
</clipPath>
</defs>
<g inkscape:groupmode="layer" inkscape:label="Layer 1">
<path transform="matrix(1,0,0,-1,0,1350)" d="M588.078 620.206H315.213V927.17898H588.078Z" fill="#ffffff"/>
<g clip-path="url(#clip_1)">
<path transform="matrix(1,0,0,-1,660.4054,1225.923)" d="M0 0H-536.052V-124.404H-660.454V-660.456H-536V-230.103C-536-171.754-488.699-124.453-430.35-124.453H0Z" fill="#fc7342"/>
<path transform="matrix(1,0,0,-1,-536.1,1350.3121)" d="M0 0H536.052V124.404H660.454V660.456H536V230.103C536 171.754 488.699 124.453 430.35 124.453H0Z" fill="#fc7342"/>
<path transform="matrix(1,0,0,-1,310.1885,1128.0584)" d="M0 0-88.002 88.002 165.423 341.428 253.425 253.425Z" fill="#fc7342"/>
</g>
<g clip-path="url(#clip_2)">
<g clip-path="url(#clip_3)">
<path transform="matrix(1,0,0,-1,594.64,1350.3121)" d="M0 0H536.052V124.404H660.454V660.456H536V230.103C536 171.754 488.699 124.453 430.35 124.453H0Z" fill="#14181e"/>
</g>
</g>
</g>
</svg>
